<?xml version="1.0" encoding="UTF-8"?>
<svg width="128" height="128" viewBox="0 0 128 128" xmlns="http://www.w3.org/2000/svg">
  <!-- Background -->
  <rect width="128" height="128" rx="16" fill="#1a1a1a"/>

  <!-- Keyboard shape -->
  <rect x="20" y="40" width="88" height="60" rx="4" fill="#2d2d2d" stroke="#00ff00" stroke-width="2"/>

  <!-- Keys representation -->
  <g fill="#404040" stroke="#00ff00" stroke-width="1">
    <rect x="28" y="48" width="12" height="12" rx="2"/>
    <rect x="44" y="48" width="12" height="12" rx="2"/>
    <rect x="60" y="48" width="12" height="12" rx="2"/>
    <rect x="76" y="48" width="12" height="12" rx="2"/>
    <rect x="92" y="48" width="12" height="12" rx="2"/>

    <rect x="28" y="64" width="12" height="12" rx="2"/>
    <rect x="44" y="64" width="12" height="12" rx="2"/>
    <rect x="60" y="64" width="12" height="12" rx="2"/>
    <rect x="76" y="64" width="12" height="12" rx="2"/>
    <rect x="92" y="64" width="12" height="12" rx="2"/>

    <rect x="28" y="80" width="12" height="12" rx="2"/>
    <rect x="44" y="80" width="12" height="12" rx="2"/>
    <rect x="60" y="80" width="12" height="12" rx="2"/>
    <rect x="76" y="80" width="12" height="12" rx="2"/>
    <rect x="92" y="80" width="12" height="12" rx="2"/>
  </g>

  <!-- G13 text -->
  <text x="64" y="25" font-family="Arial, sans-serif" font-size="18" font-weight="bold" fill="#00ff00" text-anchor="middle">G13</text>

  <!-- Accent glow -->
  <circle cx="64" cy="70" r="30" fill="none" stroke="#00ff00" stroke-width="2" opacity="0.3"/>
</svg>
